<?xml version="1.0" encoding="utf-8"?>
<svg version="1.1" xmlns:xlink="http://www.w3.org/1999/xlink" width="13px" height="13px" xmlns="http://www.w3.org/2000/svg">
  <g transform="matrix(1 0 0 1 -490 -181 )">
    <path d="M 12.6803089488636 4.99964488636364  C 12.8534268465909 5.17083925189394  12.9380622632576 5.37858072916667  12.9380622632576 5.62286931818182  L 12.9380622632576 7.37905421401515  C 12.9380622632576 7.6233428030303  12.8534268465909 7.83108428030303  12.6822324810606 8.00035511363636  C 12.5110381155303 8.17154947916666  12.3032966382576 8.25618489583333  12.0609315814394 8.25618489583333  L 8.25618489583333 8.25618489583333  L 8.25618489583333 12.0609315814394  C 8.25618489583333 12.3052201704545  8.17154947916667 12.5129616477273  8.00035511363636 12.6822324810606  C 7.82916074810606 12.8534268465909  7.62141927083333 12.9380622632576  7.37905421401515 12.9380622632576  L 5.62286931818182 12.9380622632576  C 5.37858072916667 12.9380622632576  5.17083925189394 12.8534268465909  5.00156841856061 12.6822324810606  C 4.8303740530303 12.5110381155303  4.74573863636364 12.3032966382576  4.74573863636364 12.0609315814394  L 4.74573863636364 8.25618489583333  L 0.939068418560606 8.25618489583333  C 0.694779829545455 8.25618489583333  0.487038352272727 8.17154947916667  0.317767518939395 8.00035511363636  C 0.146573153409091 7.82916074810606  0.0619377367424242 7.62141927083333  0.0619377367424242 7.37905421401515  L 0.0619377367424242 5.62286931818182  C 0.0619377367424242 5.37858072916667  0.146573153409091 5.17083925189394  0.317767518939395 5.00156841856061  C 0.488961884469698 4.8303740530303  0.696703361742424 4.74573863636364  0.939068418560607 4.74573863636364  L 4.74381510416667 4.74573863636364  L 4.74381510416667 0.939068418560606  C 4.74381510416667 0.694779829545455  4.82845052083333 0.487038352272727  4.99964488636364 0.317767518939395  C 5.17083925189394 0.146573153409091  5.37858072916667 0.0619377367424242  5.62094578598485 0.0619377367424242  L 7.37713068181818 0.0619377367424242  C 7.62141927083334 0.0619377367424242  7.82916074810606 0.146573153409091  7.99843158143939 0.317767518939395  C 8.1696259469697 0.488961884469698  8.25426136363636 0.696703361742424  8.25426136363636 0.939068418560607  L 8.25426136363636 4.74381510416667  L 12.0590080492424 4.74381510416667  C 12.3032966382576 4.74381510416667  12.5110381155303 4.82845052083333  12.6803089488636 4.99964488636364  Z " fill-rule="nonzero" fill="#009688" stroke="none" transform="matrix(1 0 0 1 490 181 )" />
  </g>
</svg>