<?xml version="1.0" encoding="utf-8"?>
<svg version="1.1" xmlns:xlink="http://www.w3.org/1999/xlink" width="12px" height="3px" xmlns="http://www.w3.org/2000/svg">
  <g transform="matrix(1 0 0 1 -508 -186 )">
    <path d="M 11.7613636363636 0.21875  C 11.9204545454545 0.364583333333332  12 0.541666666666666  12 0.75  L 12 2.25  C 12 2.45833333333333  11.9204545454545 2.63541666666667  11.7613636363636 2.78125  C 11.6022727272727 2.92708333333333  11.4090909090909 3  11.1818181818182 3  L 0.818181818181818 3  C 0.590909090909091 3  0.397727272727273 2.92708333333333  0.238636363636364 2.78125  C 0.0795454545454545 2.63541666666667  0 2.45833333333333  0 2.25  L 0 0.75  C 0 0.541666666666666  0.0795454545454545 0.364583333333332  0.238636363636364 0.21875  C 0.397727272727273 0.0729166666666661  0.590909090909091 0  0.818181818181818 0  L 11.1818181818182 0  C 11.4090909090909 0  11.6022727272727 0.0729166666666661  11.7613636363636 0.21875  Z " fill-rule="nonzero" fill="#009688" stroke="none" transform="matrix(1 0 0 1 508 186 )" />
  </g>
</svg>